# xmcd
#
# Track frame offsets: 
#        150
#        17858
#        33405
#        46126
#        84581
#        103733
#        117912
#        130662
#        141892
#        156806
#        167224
#        182843
#        200244
#        213893
#        246743
#        264470
#
# Disc length: 3745 seconds
#
# Revision: 2
# Processed by: cddbd v1.5.2PL0 Copyright (c) Steve Scherf et al.
# Submitted via: ExactAudioCopy v1.0b3
#
DISCID=e90e9f10
DTITLE=Various Artist - Blues Anthology [CD 3)
DYEAR=2000
DGENRE=Blues
TTITLE0=Eric Clapton (With John Mayall's Bluesbreakers) - Telephone Bl
TTITLE0=ues
TTITLE1=Albert King - Born Under A Bad Sign
TTITLE2=Fleetwood Mac - Man Of The World
TTITLE3=Jimi Hendrix - Bleeding Heart
TTITLE4=John Mayall - John Lee Boogie
TTITLE5=Johnny Winter - Low Down Gal Of Mine
TTITLE6=Jimmy Reed - Shame, Shame, Shame
TTITLE7=John Lee Hooker - This Is Hip
TTITLE8=Elmore James - It Hurts Me Too
TTITLE9=James Harman - Swamp Night
TTITLE10=George Baze - Little Red Rooster
TTITLE11=The Blues Instigators - How Blue Can You Get
TTITLE12=Son Seals and The Fire Band - Every Day I Have The Blues
TTITLE13=Roy Buchanan - Blues In E
TTITLE14=Sonny Boy Williamson - Fattenin' Frogs For Snakes
TTITLE15=Muddy Waters - Mannish Boy
EXTD=YEAR: 2000
EXTT0=
EXTT1=
EXTT2=
EXTT3=
EXTT4=
EXTT5=
EXTT6=
EXTT7=
EXTT8=
EXTT9=
EXTT10=
EXTT11=
EXTT12=
EXTT13=
EXTT14=
EXTT15=
PLAYORDER=
